<svg xmlns="http://www.w3.org/2000/svg" xmlns:xlink="http://www.w3.org/1999/xlink" width="1931.368" height="618.17" viewBox="0 0 1931.368 618.17">
  <defs>
    <clipPath id="clip-path">
      <rect id="Rectangle_1396" data-name="Rectangle 1396" width="1931.368" height="618.17" fill="none"/>
    </clipPath>
    <linearGradient id="linear-gradient" x1="0.5" y1="-0.203" x2="0.5" y2="1.186" gradientUnits="objectBoundingBox">
      <stop offset="0.03" stop-color="#29256b"/>
      <stop offset="0.423" stop-color="#5a5689"/>
    </linearGradient>
    <linearGradient id="linear-gradient-2" x1="-0.054" y1="0.435" x2="1.105" y2="0.571" gradientUnits="objectBoundingBox">
      <stop offset="0.03" stop-color="#29256b"/>
      <stop offset="0.832" stop-color="#5a5689"/>
    </linearGradient>
    <clipPath id="clip-path-2">
      <path id="Path_1467" data-name="Path 1467" d="M2360.923,2124.473C2050.255,2297.654,789.942,2966.392-115,2336.654v348.488H2348.853Z" transform="translate(115 -2124.473)" fill="none"/>
    </clipPath>
  </defs>
  <g id="Group_7120" data-name="Group 7120" clip-path="url(#clip-path)">
    <g id="Group_7119" data-name="Group 7119" transform="translate(-147.896 26.75)">
      <g id="Group_7115" data-name="Group 7115">
        <path id="Path_1459" data-name="Path 1459" d="M-128.919,2090.865c125.032,277.728,826,619.735,1387.373,458.625,0,0-928.152,222.108-1415.28-217.321Z" transform="translate(156.827 -2090.865)" fill="url(#linear-gradient)"/>
        <path id="Path_1460" data-name="Path 1460" d="M2360.923,2124.473C2050.255,2297.654,789.942,2966.392-115,2336.654v348.488H2348.853Z" transform="translate(154.445 -2092.779)" fill="url(#linear-gradient-2)"/>
      </g>
      <g id="Group_7118" data-name="Group 7118" transform="translate(39.445 31.694)">
        <g id="Group_7117" data-name="Group 7117" clip-path="url(#clip-path-2)">
          <g id="Group_7116" data-name="Group 7116" transform="translate(1321.155 142.627)" opacity="0.8" style="mix-blend-mode: overlay;isolation: isolate">
            <path id="Path_1461" data-name="Path 1461" d="M2066.045,2606.9c-18.861-34.563-48.672-56.416-87.636-65.347-7.707-1.763-15.669-1.261-23.162-3.846q-23.916.092-47.828.18c-26.866,1.788-52.2,9.528-76.733,20.108a290.3,290.3,0,0,0-57.853,33.031c-18.058,11.321-34.369,24.917-50.45,38.8-10.457,9.034-20.724,18.306-31.12,27.412-1.655,1.447-3.471,4.164-5.852,1.033-5.573-7.326-13.649-11.8-20.236-17.969a503.253,503.253,0,0,0-96.808-71.483c-19.539-11.04-40.548-18.471-61.974-24.485a222.642,222.642,0,0,0-98.843-4.87c-51.124,8.825-86.137,38.323-105.553,85.962-18.5,45.365-19.89,92.52-9.9,139.817,10.926,51.75,42.379,85.236,94.133,98.358,34.018,8.622,68.258,5.43,102.1-.8,31.47-5.777,61.149-17.448,89.822-31.637,36.46-18.041,69.852-41.008,103.276-63.9,5.179-3.542,8.574-2.836,13.422.541,29.432,20.454,59.271,40.348,91.022,57.118,36.805,19.444,75.485,33.534,116.787,39.908A273.653,273.653,0,0,0,1965.97,2867c.574-.033,1.152-.081,1.736-.133,4.353.707,8.474-.8,12.6-1.6,49.915-9.808,85.536-37.447,101.256-86.385C2100.566,2719.771,2095.885,2661.6,2066.045,2606.9Zm-447.83,116.944c-13.934,11.505-27.725,23.19-42.388,33.786-32,23.138-65.873,42.767-103.461,55.392-7.541,2.532-15.261,4.895-23.092,6.022-10.765,1.542-21.711,1.841-32.571,2.68-20.739-.214-41.292-2-59.527-12.573-31-17.978-66.025-62.435-59.276-104.59,7.588-47.448,42.806-78.611,90.975-79.782,45.76-1.119,88.005,12.2,129.132,30.56,31.077,13.872,60.044,31.41,88.267,50.28,3.7,2.475,6.914,5.862,10.874,7.769C1623.84,2716.594,1622.905,2719.976,1618.215,2723.845Zm442.727,45.812c-13.891,19.672-30.546,36.9-54.059,45.57-10.073,3.719-20.624,4.9-31.172,6.18-12.493.176-24.988.459-37.437-.721-29.7-2.822-56.459-14.549-82.4-28.113-35.261-18.425-67.073-41.942-96.709-68.429-7.279-6.5-7.35-7.142.717-12.529,13.9-9.286,27.606-18.894,42.236-27.08,1.759-.986,66.579-35.023,83.761-41.169,35.474-12.706,71.759-22.129,109.964-17.51,36.351,4.4,61.561,23.9,78,56.853C2090.133,2715.39,2079.609,2743.2,2060.943,2769.658Z" transform="translate(-1285.938 -2290.541)" fill="none" stroke="#fff" stroke-miterlimit="10" stroke-width="3"/>
            <path id="Path_1462" data-name="Path 1462" d="M1812.6,2332.023c-1.2,2.654,1.287,4.392,2.953,5.961,12.609,11.842,24.459,24.3,34.22,38.7,15.43,22.748,25.271,47.1,23.948,75.211-.511,10.784-.088,21.62-1.1,32.518-3.748-10.456-6.772-20.914-11.384-30.745a191.389,191.389,0,0,0-16.453-29.044,159.5,159.5,0,0,0-21.919-25.174c-8.051-7.494-15.906-15.228-27.845-18.9,3.571,11.154,7.944,20.968,9.744,31.232,4.065,23.154,8.041,46.5,1.507,69.957-1.472,19.521-9.584,36.706-18.921,53.432-4.092,7.328-8.465,14.461-15.7,19.628.193-7.918,3.209-15.113,4.373-22.687a198.958,198.958,0,0,0,.239-57.789c-.608-4.444-.821-8.932-1.208-13.4-.132-.661-.265-1.332-.4-1.992q-4.008-11.8-8.024-23.6a.839.839,0,0,0-.071-.114,1.537,1.537,0,0,0-.793-1.244q-1.932-5.118-3.88-10.253c-8.783-13.914-16.78-28.445-29.838-39.079-1.922-1.569-3.571-4.831-6.586-3.209-2.373,1.287-1.376,4.329-1.394,6.621-.229,28.2.865,56.431-.882,84.594-1.2,19.337-2.151,38.814-5.325,57.876-3.156,18.9-5.652,38.179-13.579,56.008-.943,2.144-1.3,5.467-3.923,5.5-2.963.035-2.584-3.519-3.342-5.6-9.2-25.165-12.274-51.441-15.262-77.928-4.541-40.278-5.088-80.617-5.079-121.035,0-2.6.458-5.908-2.425-6.983-2.654-1-4.074,2.063-5.581,3.712-29.635,32.677-44.854,70.952-44.739,115.225.035,17.379,1.578,34.511,6.665,51.22.573,1.887,1.764,3.9.239,7.494-23.358-24.248-34.555-53.018-38.471-84.964-3.905-31.909,1.376-62.788,12.653-93.022-20.817,10.916-36.926,26.293-50.744,44.334-13.772,18-20.685,39-26.267,61.28-6.886-15.43-4.294-51.82,9.559-83.623,11.55-26.541,28.462-49.324,49.888-69.172-41.865-2.4-74.057,19.15-106.267,41.635,1.966-8.535,7.4-14.99,12.556-21.153,16.8-20.05,35.666-37.915,59.438-49.58,26.84-13.173,54.958-20.924,85.255-17.979a1.484,1.484,0,0,1,.855.009c.776-.089,1.561-.168,2.345-.256,1.843.009,3.677.009,5.511.018.89.3,1.79.608,2.68.908,12.353-.573,24.274,2.037,35.966,5.449,4.867,1.429,6.507.018,7.962-4.338s1.481-11.851,5.82-11.965c5.36-.132,5.749,7.433,7.142,11.912,1.729,5.546,4.514,4.928,8.968,4.126,46.732-8.437,92.467-7.079,135.743,15.246,30.922,15.951,54.218,39.6,70.177,70.495-8.359-5.846-16.5-12.053-25.129-17.467-24.195-15.157-51.035-23.34-78.8-28.859C1815.908,2330.815,1813.474,2330.092,1812.6,2332.023Z" transform="translate(-1297.057 -2275.713)" fill="none" stroke="#fff" stroke-miterlimit="10" stroke-width="3"/>
            <path id="Path_1463" data-name="Path 1463" d="M1992.778,2537.742q-23.913.092-47.826.177A238.737,238.737,0,0,1,1992.778,2537.742Z" transform="translate(-1323.469 -2290.573)" fill="none" stroke="#fff" stroke-miterlimit="10" stroke-width="3"/>
            <path id="Path_1464" data-name="Path 1464" d="M1948.265,2383.762q.023.587.045,1.173l.521-.3-.629-.99Z" transform="translate(-1323.654 -2281.86)" fill="none" stroke="#fff" stroke-miterlimit="10" stroke-width="3"/>
            <path id="Path_1465" data-name="Path 1465" d="M1659.846,2287.152c-.89-.3-1.79-.608-2.68-.908C1658.33,2285.759,1659.344,2285.723,1659.846,2287.152Z" transform="translate(-1307.079 -2276.296)" fill="none" stroke="#fff" stroke-miterlimit="10" stroke-width="3"/>
            <path id="Path_1466" data-name="Path 1466" d="M1783.742,2444.769q-.4-.621-.793-1.244A1.537,1.537,0,0,1,1783.742,2444.769Z" transform="translate(-1314.243 -2285.27)" fill="none" stroke="#fff" stroke-miterlimit="10" stroke-width="3"/>
          </g>
        </g>
      </g>
    </g>
  </g>
</svg>
