<svg xmlns="http://www.w3.org/2000/svg" width="948.883" height="680.798" viewBox="0 0 948.883 680.798">
  <g id="Group_7139" data-name="Group 7139" transform="translate(-1122.711 -549.684)">
    <path id="Path_1487" data-name="Path 1487" d="M2200.224,3832.082c-22.1-40.508-57.043-66.12-102.709-76.586-9.032-2.067-18.364-1.478-27.146-4.508q-28.03.108-56.054.211c-31.486,2.1-61.183,11.166-89.931,23.566a340.211,340.211,0,0,0-67.8,38.713c-21.164,13.267-40.28,29.2-59.128,45.471-12.255,10.588-24.289,21.455-36.472,32.126-1.94,1.7-4.069,4.88-6.858,1.211-6.531-8.586-16-13.828-23.717-21.06a589.8,589.8,0,0,0-113.459-83.778c-22.9-12.939-47.523-21.648-72.634-28.7a260.946,260.946,0,0,0-115.844-5.708c-59.917,10.343-100.953,44.915-123.708,100.747-21.682,53.168-23.311,108.433-11.605,163.865,12.805,60.651,49.668,99.9,110.324,115.276,39.869,10.105,80,6.364,119.656-.933,36.884-6.771,71.667-20.45,105.271-37.079,42.731-21.144,81.866-48.061,121.04-74.891,6.07-4.152,10.049-3.324,15.73.634,34.494,23.972,69.465,47.288,106.678,66.942,43.136,22.788,88.469,39.3,136.875,46.772a320.67,320.67,0,0,0,74.207,2.54c.673-.038,1.351-.095,2.035-.155,5.1.829,9.932-.939,14.767-1.878,58.5-11.495,100.248-43.888,118.672-101.243C2240.682,3964.365,2235.2,3896.185,2200.224,3832.082Zm-524.857,137.059c-16.33,13.484-32.494,27.179-49.679,39.6-37.5,27.119-77.2,50.124-121.256,64.92-8.837,2.968-17.886,5.736-27.063,7.058-12.617,1.807-25.445,2.157-38.173,3.141-24.306-.251-48.395-2.346-69.766-14.735-36.334-21.071-77.381-73.173-69.472-122.579,8.893-55.61,50.169-92.132,106.623-93.505,53.63-1.312,103.143,14.3,151.343,35.816,36.423,16.258,70.372,36.813,103.449,58.927,4.341,2.9,8.1,6.87,12.745,9.1C1681.959,3960.642,1680.863,3964.605,1675.367,3969.141Zm518.876,53.692c-16.28,23.056-35.8,43.248-63.357,53.408-11.805,4.358-24.172,5.747-36.533,7.243-14.641.206-29.286.538-43.876-.845-34.806-3.307-66.171-17.052-96.573-32.949-41.326-21.593-78.609-49.156-113.343-80.2-8.532-7.614-8.615-8.37.84-14.684,16.3-10.884,32.354-22.144,49.5-31.738,2.061-1.156,78.031-41.047,98.168-48.25,41.575-14.891,84.1-25.935,128.877-20.521,42.6,5.158,72.15,28.007,91.415,66.631C2228.455,3959.231,2216.12,3991.823,2194.243,4022.833Z" transform="translate(-161.74 -2910.124)" fill="none" stroke="rgba(45,41,102,0.15)" stroke-miterlimit="10" stroke-width="3"/>
    <path id="Path_1488" data-name="Path 1488" d="M1869.6,3554.708c-1.406,3.11,1.509,5.147,3.462,6.986,14.777,13.879,28.666,28.48,40.105,45.355,18.084,26.661,29.617,55.2,28.067,88.147-.6,12.639-.1,25.339-1.291,38.111-4.392-12.255-7.937-24.511-13.342-36.033a224.292,224.292,0,0,0-19.283-34.04,186.932,186.932,0,0,0-25.689-29.5c-9.436-8.783-18.643-17.847-32.635-22.146,4.186,13.073,9.311,24.574,11.419,36.6,4.764,27.136,9.425,54.5,1.766,81.989-1.725,22.879-11.233,43.02-22.176,62.623-4.8,8.588-9.921,16.948-18.4,23,.227-9.28,3.761-17.712,5.125-26.589a233.172,233.172,0,0,0,.28-67.729c-.713-5.208-.962-10.468-1.416-15.707-.155-.775-.311-1.561-.465-2.335q-4.7-13.827-9.4-27.665a1,1,0,0,0-.083-.134,1.8,1.8,0,0,0-.929-1.458q-2.265-6-4.547-12.017c-10.293-16.307-19.666-33.338-34.97-45.8-2.252-1.839-4.186-5.662-7.719-3.761-2.781,1.509-1.613,5.074-1.634,7.76-.269,33.049,1.013,66.137-1.033,99.145-1.4,22.662-2.521,45.49-6.241,67.831-3.7,22.146-6.624,44.746-15.915,65.641-1.105,2.512-1.529,6.407-4.6,6.449-3.473.041-3.029-4.124-3.917-6.562-10.779-29.494-14.385-60.288-17.888-91.332-5.322-47.206-5.963-94.483-5.953-141.853,0-3.05.537-6.925-2.842-8.184-3.11-1.168-4.775,2.417-6.541,4.35-34.733,38.3-52.569,83.156-52.435,135.043.041,20.369,1.849,40.447,7.812,60.03.672,2.211,2.067,4.568.28,8.783-27.375-28.418-40.5-62.137-45.088-99.578-4.577-37.4,1.613-73.587,14.829-109.022-24.4,12.793-43.277,30.815-59.472,51.959-16.141,21.1-24.243,45.707-30.784,71.821-8.071-18.084-5.032-60.733,11.2-98.007,13.537-31.105,33.358-57.808,58.469-81.069-49.066-2.811-86.795,22.444-124.545,48.8,2.3-10,8.67-17.568,14.716-24.791,19.686-23.5,41.8-44.436,69.661-58.107,31.457-15.438,64.411-24.522,99.918-21.071a1.743,1.743,0,0,1,1,.011c.91-.1,1.829-.2,2.749-.3,2.16.01,4.309.01,6.459.021,1.043.352,2.1.713,3.141,1.064,14.478-.672,28.449,2.387,42.152,6.386,5.7,1.674,7.626.021,9.332-5.084s1.735-13.889,6.821-14.023c6.282-.155,6.738,8.712,8.37,13.961,2.026,6.5,5.291,5.776,10.51,4.835,54.77-9.889,108.371-8.3,159.09,17.868,36.24,18.694,63.543,46.41,82.248,82.62-9.8-6.852-19.335-14.127-29.452-20.472-28.356-17.764-59.813-27.354-92.354-33.823C1873.48,3553.292,1870.627,3552.445,1869.6,3554.708Z" transform="translate(-141.189 -2937.529)" fill="none" stroke="rgba(45,41,102,0.15)" stroke-miterlimit="10" stroke-width="3"/>
    <path id="Path_1491" data-name="Path 1491" d="M1660.307,3500.36c-1.043-.352-2.1-.713-3.141-1.064C1658.53,3498.727,1659.718,3498.685,1660.307,3500.36Z" transform="translate(-122.666 -2936.452)" fill="none" stroke="rgba(45,41,102,0.15)" stroke-miterlimit="10" stroke-width="3"/>
  </g>
</svg>
