<svg xmlns="http://www.w3.org/2000/svg" xmlns:xlink="http://www.w3.org/1999/xlink" width="347.037" height="347.261" viewBox="0 0 347.037 347.261">
  <defs>
    <radialGradient id="radial-gradient" cx="0.844" cy="-0.432" r="1.524" gradientTransform="translate(0.014) scale(0.971 1)" gradientUnits="objectBoundingBox">
      <stop offset="0" stop-color="#ffc94c"/>
      <stop offset="0.14" stop-color="#a2621e"/>
      <stop offset="0.163" stop-color="#955a1b"/>
      <stop offset="0.25" stop-color="#6e4214"/>
      <stop offset="0.343" stop-color="#4c2e0e"/>
      <stop offset="0.441" stop-color="#301d08"/>
      <stop offset="0.546" stop-color="#1a1004"/>
      <stop offset="0.663" stop-color="#0b0702"/>
      <stop offset="0.798" stop-color="#020100"/>
      <stop offset="1"/>
    </radialGradient>
  </defs>
  <g id="Group_7144" data-name="Group 7144" transform="translate(-778.693 -668.584)">
    <g id="Group_7143" data-name="Group 7143" transform="translate(778.693 668.584)">
      <path id="Path_1493" data-name="Path 1493" d="M1076.449,963.394l-19.9,2.086-5.309,19.293-19.932-1.717L1022.466,1001l-19.26-5.464-12.085,15.943-17.875-9-14.888,13.373-15.837-12.227-17.156,10.3-13.24-15-18.788,6.872-10.168-17.238-19.75,3.193L856.7,972.9l-20.007-.6-3.024-19.767-19.529-4.385.768-20-18.347-7.988,4.553-19.487-16.5-11.326,8.14-18.274-14.06-14.232,11.462-16.4L779.043,823.8l14.35-13.948L785.635,791.4l16.73-10.966-4.13-19.578,18.51-7.61-.357-20L836,729.281l3.441-19.72,20.007-.174,7.117-18.707,19.678,3.607,10.531-17.013,18.641,7.259,13.545-14.724L945.9,680.475l16.1-11.891,14.61,13.678,18.045-8.626,11.756,16.192,19.366-5.062,8.476,18.123,19.964-1.3,4.9,19.406,19.855,2.5,1.138,19.977,19.018,6.216-2.673,19.829,17.506,9.693-6.374,18.97,15.35,12.834-9.842,17.422,12.642,15.5-12.962,15.244,9.47,17.625-15.607,12.511,5.971,19.1-17.7,9.334,2.249,19.886-19.145,5.814Z" transform="translate(-778.693 -668.584)" fill="#2d2966"/>
      <path id="Path_1494" data-name="Path 1494" d="M1119.387,853.441A156.165,156.165,0,1,1,963.222,697.279,156.164,156.164,0,0,1,1119.387,853.441Z" transform="translate(-789.986 -680.008)" fill="#fff"/>
      <path id="Path_1495" data-name="Path 1495" d="M813.035,855.819A152.567,152.567,0,1,1,965.6,1008.389,152.566,152.566,0,0,1,813.035,855.819Z" transform="translate(-792.366 -682.386)" fill="#12826a"/>
      <path id="Path_1496" data-name="Path 1496" d="M1115.4,861.225A144.394,144.394,0,1,1,971.006,716.831,144.392,144.392,0,0,1,1115.4,861.225Z" transform="translate(-797.77 -687.793)" fill="#fff"/>
      <path id="Path_1497" data-name="Path 1497" d="M1114.231,863.511A140.94,140.94,0,1,1,973.292,722.573,140.938,140.938,0,0,1,1114.231,863.511Z" transform="translate(-800.056 -690.079)" fill="#2d2966"/>
      <path id="Path_1498" data-name="Path 1498" d="M1103.825,883.846a110.2,110.2,0,1,1-110.2-110.2A110.2,110.2,0,0,1,1103.825,883.846Z" transform="translate(-820.391 -710.414)" fill="#fff"/>
      <path id="Path_1499" data-name="Path 1499" d="M1102.635,886.178A106.675,106.675,0,1,1,995.96,779.507,106.674,106.674,0,0,1,1102.635,886.178Z" transform="translate(-822.724 -712.746)" fill="#fff"/>
      <path id="Path_1500" data-name="Path 1500" d="M929.222,969.368a377.679,377.679,0,0,1,155.5-142.344,106.663,106.663,0,1,0-155.5,142.344Z" transform="translate(-822.726 -712.748)" fill="url(#radial-gradient)" style="mix-blend-mode: screen;isolation: isolate"/>
    </g>
    <path id="Path_1501" data-name="Path 1501" d="M1065.894,896.437q-.747,2.093-2.366,2.093-1.893,0-2.5-2.89t-.611-11.808q0-6.475.2-9.352a10.659,10.659,0,0,1,.734-3.849,1.829,1.829,0,0,1,1.731-.971q1.618,0,2.49,2.018a15.239,15.239,0,0,1,.872,5.828h4.533V865.325h-4.533v1.818h-.1a4.447,4.447,0,0,0-4.086-2.44q-7.647,0-7.646,19.8,0,9.59,2.168,14.285t6.649,4.7a6.439,6.439,0,0,0,5.731-3.4q2.092-3.4,2.142-9.3l-4.658-1.3A22.836,22.836,0,0,1,1065.894,896.437Zm33.8-26.578h2.814v-4.534h-11.228l-1.169,7.149q-.422,2.491-.87,6.128l-.77,6.153h-.149l-.653-7q-.278-2.838-.578-4.508l-1.448-7.922h-11.157v4.534h2.813V898.33h-2.813v4.534h10.162V898.33h-2.814V879.249l-.3-10.063h.5l1.9,14.4,3.463,19.28h1.6l3.551-20.824,1.694-12.854h.5l-.4,10.113V898.33h-2.815v4.534h11.034V898.33H1099.7Zm22.442,6.426v-10.96h-17.286v4.534h2.764V898.33h-2.764v4.534h17.286V891.331h-4.533v7h-4.683V885.776h3.812v-4.534h-3.812V869.859h4.683v6.426Z" transform="translate(-105.545 -45.227)" fill="#12826a"/>
    <path id="Path_1502" data-name="Path 1502" d="M975.36,996.134q-.622,1.742-1.97,1.743-1.577,0-2.084-2.407a59.186,59.186,0,0,1-.508-9.831q0-5.392.165-7.787a8.881,8.881,0,0,1,.612-3.2,1.522,1.522,0,0,1,1.441-.809q1.348,0,2.074,1.68a12.7,12.7,0,0,1,.726,4.853h3.775V970.23h-3.775v1.514h-.083a3.7,3.7,0,0,0-3.4-2.032q-6.368,0-6.368,16.488,0,7.985,1.8,11.894t5.538,3.91a5.36,5.36,0,0,0,4.769-2.831,14.978,14.978,0,0,0,1.784-7.747l-3.878-1.078A18.977,18.977,0,0,1,975.36,996.134Zm19.57-10.062a8.158,8.158,0,0,0,3.721-7.361,7.967,7.967,0,0,0-8.566-8.481h-7.819V974H984.9v23.707h-2.634v3.774h9.375v-3.774h-2.323V987.3a10.011,10.011,0,0,0,1.743-.125l3.842,14.311h5.283v-3.774h-1.866Zm-2-3.7a4.824,4.824,0,0,1-3.609,1.151V974a5.2,5.2,0,0,1,3.6,1.027q1.11,1.026,1.11,3.681A5.161,5.161,0,0,1,992.926,982.373ZM941.845,974h2.176V970.23H932.448V974h2.176l-3.441,23.707h-1.95v3.774h8.358v-3.774h-1.987l.764-7.094H940.1l.765,7.094h-1.987v3.774h8.358v-3.774h-1.95Zm-5.2,12.839,1.337-13.937h.5l1.338,13.937Zm21.476,9.291q-.621,1.742-1.971,1.743-1.576,0-2.084-2.407a59.167,59.167,0,0,1-.508-9.831q0-5.392.166-7.787a8.863,8.863,0,0,1,.612-3.2,1.523,1.523,0,0,1,1.441-.809q1.348,0,2.074,1.68a12.7,12.7,0,0,1,.726,4.853h3.775V970.23h-3.775v1.514H958.5a3.7,3.7,0,0,0-3.4-2.032q-6.367,0-6.367,16.488,0,7.985,1.8,11.894t5.537,3.91a5.36,5.36,0,0,0,4.77-2.831,14.972,14.972,0,0,0,1.784-7.747l-3.878-1.078A18.979,18.979,0,0,1,958.125,996.134ZM1066.179,974h2.3v23.707h-2.3v3.774h14.394v-9.6H1076.8v5.828h-3.9V987.257h3.173v-3.775H1072.9V974h3.9v5.351h3.775V970.23h-14.394Zm-64.584,0h2.3v23.707h-2.3v3.774h14.394v-9.6h-3.775v5.828h-3.9V987.257h3.173v-3.775h-3.173V974h3.9v5.351h3.775V970.23h-14.394Zm95.4.063q-2.406-3.837-7.8-3.837h-5.641V974h2.282v23.707h-2.282v3.774h5.766q5.164,0,7.622-3.805t2.458-11.707Q1099.4,977.9,1097,974.067Zm-3.375,21.134a3.473,3.473,0,0,1-3.366,2.51V974a3.162,3.162,0,0,1,2.6,1.131,8.055,8.055,0,0,1,1.313,3.806,54.851,54.851,0,0,1,.4,7.549Q1094.572,992.733,1093.624,995.2Zm-45.613-13.543h3.3v-8.13h2.655v24.183H1051.5v3.774h9.353v-3.774h-2.468V973.528h2.654v8.13h3.3V970.23h-16.322ZM1036.978,974h2.385v23.707h-2.385v3.774h9.188v-3.774h-2.385V974h2.385V970.23h-9.188Zm-12.361-3.774h-5.642V974h2.282v23.707h-2.282v3.774h5.767q5.163,0,7.622-3.805t2.457-11.707q0-8.069-2.405-11.905T1024.617,970.23Zm4.424,24.971a3.473,3.473,0,0,1-3.365,2.51V974a3.162,3.162,0,0,1,2.6,1.131,8.057,8.057,0,0,1,1.314,3.806,54.91,54.91,0,0,1,.4,7.549Q1029.988,992.733,1029.04,995.2Z" transform="translate(-56.63 -100.052)" fill="#12826a"/>
    <path id="Union_1" data-name="Union 1" d="M14.131,76.088H-.026V74.118H2.688V1.736H-.026V-.234H11.417V74.118h2.714ZM45.107,65.5a10,10,0,0,1-3.832,7.85,13.779,13.779,0,0,1-9.261,3.273,13.806,13.806,0,0,1-9.234-3.273,9.971,9.971,0,0,1-3.859-7.85V10.358a9.971,9.971,0,0,1,3.859-7.85A13.806,13.806,0,0,1,32.014-.766a13.779,13.779,0,0,1,9.261,3.273,10,10,0,0,1,3.832,7.85V22.652H36.378V5.568A4.206,4.206,0,0,0,35.1,2.481a4.369,4.369,0,0,0-6.174,0A4.206,4.206,0,0,0,27.65,5.568V36.277A10.133,10.133,0,0,1,34.3,34.255q10.8,0,10.8,10.006Zm-8.729,4.79V40.535q0-4.1-4.364-4.1a6.435,6.435,0,0,0-4.364,1.81v32.04a4.364,4.364,0,1,0,8.729,0Z" transform="translate(887.74 776.405)" fill="#12826a"/>
  </g>
</svg>
